<svg id="Capa_1" enable-background="new 0 0 512 512" height="512" viewBox="0 0 512 512" width="512" xmlns="http://www.w3.org/2000/svg"><g><circle cx="90.338" cy="444.5" r="7.5"/><circle cx="421.669" cy="361" r="7.5"/><circle cx="120.338" cy="474.5" r="7.5"/><path d="m486.861 263.5h2.639c12.406 0 22.5-10.093 22.5-22.5s-10.094-22.5-22.5-22.5h-30v-15c0-112.21-91.29-203.5-203.5-203.5s-203.5 91.29-203.5 203.5v15h-30c-12.406 0-22.5 10.093-22.5 22.5s10.094 22.5 22.5 22.5h2.639c-15.319 12.384-25.139 31.313-25.139 52.5v15c0 4.142 3.357 7.5 7.5 7.5 9.839 0 17.505-.807 23.942-2.048l20.2 119.316c5.517 32.583 33.506 56.232 66.553 56.232h275.609c33.047 0 61.036-23.649 66.553-56.232l20.2-119.316c6.438 1.241 14.104 2.048 23.942 2.048 4.143 0 7.5-3.358 7.5-7.5v-15c.001-21.187-9.819-40.116-25.138-52.5zm2.639-30c4.136 0 7.5 3.364 7.5 7.5s-3.364 7.5-7.5 7.5h-52.5c-9.777 0-18.114-6.271-21.21-15zm-422-30c0-103.939 84.561-188.5 188.5-188.5s188.5 84.561 188.5 188.5v15h-15v-15c0-95.668-77.832-173.5-173.5-173.5-40.548 0-80.002 14.291-111.096 40.239-3.18 2.654-3.606 7.384-.952 10.564 2.653 3.179 7.383 3.606 10.563.953 28.402-23.703 64.443-36.756 101.485-36.756 87.397 0 158.5 71.103 158.5 158.5v15h-317v-15c0-37.042 13.054-73.083 36.755-101.484 2.654-3.18 2.228-7.91-.952-10.564-3.182-2.654-7.912-2.227-10.563.953-25.95 31.093-40.24 70.547-40.24 111.095v15h-15zm339.521 45h-53.021c-9.777 0-18.114-6.271-21.21-15h67.465c1.129 5.539 3.483 10.637 6.766 15zm-83 0h-53.021c-9.777 0-18.114-6.271-21.21-15h67.465c1.129 5.539 3.483 10.637 6.766 15zm-83 0h-53.021c-9.777 0-18.114-6.271-21.21-15h67.465c1.129 5.539 3.483 10.637 6.766 15zm-83 0h-53.021c-9.777 0-18.114-6.271-21.21-15h67.465c1.129 5.539 3.483 10.637 6.766 15zm-135.521 0c-4.136 0-7.5-3.364-7.5-7.5s3.364-7.5 7.5-7.5h45.755c1.129 5.539 3.483 10.637 6.766 15zm423.068 204.764c-4.291 25.342-26.06 43.736-51.763 43.736h-275.61c-25.703 0-47.473-18.394-51.764-43.736l-20.445-120.763c1.871-.641 3.685-1.296 5.486-1.949 10.014-3.626 19.472-7.052 38.865-7.052s28.852 3.425 38.865 7.052c10.79 3.908 21.947 7.948 43.973 7.948 22.024 0 33.182-4.041 43.971-7.948 10.014-3.626 19.471-7.052 38.863-7.052s28.85 3.425 38.862 7.052c10.789 3.908 21.945 7.948 43.969 7.948s33.18-4.041 43.968-7.948c10.013-3.626 19.47-7.052 38.86-7.052 19.392 0 28.85 3.425 38.862 7.052 1.801.652 3.613 1.308 5.483 1.948zm51.432-129.952c-14.517-.763-22.732-3.739-31.361-6.864-10.789-3.908-21.945-7.948-43.97-7.948-22.023 0-33.18 4.041-43.968 7.948-10.013 3.626-19.47 7.052-38.86 7.052s-28.849-3.425-38.861-7.052c-10.789-3.908-21.945-7.948-43.97-7.948s-33.182 4.041-43.971 7.948c-10.014 3.626-19.471 7.052-38.863 7.052-19.394 0-28.852-3.425-38.865-7.052-10.79-3.908-21.947-7.948-43.973-7.948s-33.183 4.041-43.973 7.948c-8.63 3.125-16.848 6.101-31.365 6.864v-7.312c0-28.949 23.552-52.5 52.5-52.5h377c28.948 0 52.5 23.551 52.5 52.5z"/></g></svg>