<svg id="line" height="512" viewBox="0 0 64 64" width="512" xmlns="http://www.w3.org/2000/svg"><g fill="#c4a2fc"><path d="m25.5 36h26v9h-26z"/><path d="m25.5 61a2 2 0 0 0 2 2h22a2 2 0 0 0 2-2v-14h-26z"/><path d="m61 26.5a8 8 0 0 0 -8-7.5h-7.37v.76a7.16 7.16 0 0 1 -6.08 7.18 7 7 0 0 1 -7.92-6.94v-1h-7.42a8 8 0 0 0 -8 7.5l-1.45 23.31a3 3 0 0 0 3 3.19h5.87v-24a1 1 0 0 1 2 0v5h26v-5a1 1 0 0 1 2 0v24h5.87a3 3 0 0 0 3-3.19z"/></g><path d="m32.88 15.36a5.8 5.8 0 0 1 .74 6.31 1 1 0 0 0 .88 1.47h3v5h-1a1 1 0 0 0 0 2h4a1 1 0 0 0 0-2h-1v-5h3a1 1 0 0 0 .9-1.44 5.8 5.8 0 0 1 .72-6.34 3 3 0 0 0 -1.72-4.86l-.9-.18v-1.18a1 1 0 0 0 -1-1h-4a1 1 0 0 0 -1 1v1.18l-.9.18a3 3 0 0 0 -1.72 4.86zm2.12-2.9 1.71-.34a1 1 0 0 0 .8-1v-1h2v1a1 1 0 0 0 .8 1l1.71.34a1 1 0 0 1 .57 1.62 7.81 7.81 0 0 0 -1.53 7.06h-5.06a7.82 7.82 0 0 0 -1.53-7.06 1 1 0 0 1 .53-1.62z" fill="#151a6a"/><path d="m5.84 22.64a2 2 0 0 0 1.94 2.49h1.72v5a1 1 0 0 0 1 1h8a1 1 0 0 0 1-1v-5h1.72a2 2 0 0 0 1.94-2.49l-1.31-5.24a3 3 0 0 0 -2.91-2.27h-2.44a1 1 0 0 0 -1 1 1 1 0 0 1 -2 0 1 1 0 0 0 -1-1h-2.44a3 3 0 0 0 -2.91 2.27zm1.94.49 1.31-5.24a1 1 0 0 1 1-.76h1.61a3 3 0 0 0 5.66 0h1.61a1 1 0 0 1 1 .76l1.31 5.24h-1.78v-1a1 1 0 1 0 -2 0v7h-6v-7a1 1 0 1 0 -2 0v1z" fill="#151a6a"/><path d="m1.5 6.45v33.28a3 3 0 0 0 3.73 2.91 40.69 40.69 0 0 1 21 .62 1 1 0 0 0 .48 0 39.93 39.93 0 0 1 21-.62 3 3 0 0 0 3.73-2.91v-33.28a4 4 0 0 0 -2.74-3.79 33.33 33.33 0 0 0 -22.26.58 34.14 34.14 0 0 0 -22.21-.58 4 4 0 0 0 -2.73 3.79zm26 34.55v-36a32 32 0 0 1 20.63-.45 2 2 0 0 1 1.37 1.9v33.28a1 1 0 0 1 -1.24 1 40.19 40.19 0 0 0 -9.76-1.2 42.31 42.31 0 0 0 -11 1.47zm-24-34.55a2 2 0 0 1 1.37-1.89 31.07 31.07 0 0 1 20.63.44v36a42 42 0 0 0 -20.76-.3 1 1 0 0 1 -1.24-1z" fill="#151a6a"/></svg>