<svg xmlns="http://www.w3.org/2000/svg" viewBox="0 0 114.502 100"><path d="M196.863,170.366l-5.912,1.679-14.544-50.92a2.456,2.456,0,0,0-1.209-1.511,2.536,2.536,0,0,0-1.915-.235l-24.855,7.087h0l-14.208,4.064h0l-22.437,6.382-5.945-20.858a2.524,2.524,0,0,0-1.344-1.579L89.179,107.32a2.524,2.524,0,0,0-2.15,4.568l14.275,6.684,6.315,22.135v.034l11.823,41.549a13.093,13.093,0,0,0-6.583,15.249,13.12,13.12,0,0,0,16.223,9.035,13.147,13.147,0,0,0,9.4-14.342l51.357-14.611h.034l8.363-2.385a2.536,2.536,0,0,0,1.747-3.124A2.566,2.566,0,0,0,196.863,170.366Zm-46.05-26.333-3.963-1.377a2.472,2.472,0,0,0-2.788.806l-2.62,3.258-3.426-12.025,9.371-2.653Zm-18.272,53.876a7.986,7.986,0,0,1-4.837,3.829,8.393,8.393,0,0,1-2.217.3,8.092,8.092,0,0,1-7.759-5.878,8.057,8.057,0,0,1,5.542-9.976,8.393,8.393,0,0,1,2.217-.3,8.092,8.092,0,0,1,7.759,5.878A8.006,8.006,0,0,1,132.542,197.908Zm4.333-10.446a13.1,13.1,0,0,0-11.386-6.617c-.4,0-.773.034-1.176.067l-11.151-39.13,20.019-5.71,4.77,16.693a2.574,2.574,0,0,0,1.915,1.78,2.541,2.541,0,0,0,.5.034,2.483,2.483,0,0,0,1.948-.94l4.568-5.676,6.852,2.418a2.5,2.5,0,0,0,.873.134,2.493,2.493,0,0,0,2.351-3.392l-4.7-16.525,20.019-5.71,13.838,48.5Z" transform="translate(-85.578 -107.078)" /></svg>