<svg xmlns="http://www.w3.org/2000/svg" width="24.999" height="25" viewBox="0 0 24.999 25">
  <path id="money" d="M-15639.008-1877.169l-.006,0c-.009,0-.017-.005-.026-.005l-.108-.022c-.009,0-.019,0-.026,0a9.822,9.822,0,0,1-5.136-2.686,9.248,9.248,0,0,1-.85-.98,9.686,9.686,0,0,1-.953-.821c-4.226-4.225-3.752-11.572,1.052-16.378s12.153-5.277,16.376-1.052a9.443,9.443,0,0,1,.844.97,9.313,9.313,0,0,1,.962.833,9.917,9.917,0,0,1,2.808,5.93.525.525,0,0,1,.01.1,11.485,11.485,0,0,1-.062,2.908.282.282,0,0,1-.011.08,12.613,12.613,0,0,1-.8,2.885.373.373,0,0,1-.022.048,13.658,13.658,0,0,1-2.975,4.432c-.3.3-.62.589-.942.858v0h0a13.577,13.577,0,0,1-1.806,1.274.379.379,0,0,1-.116.067,13.153,13.153,0,0,1-2,.945.463.463,0,0,1-.053.02,12.455,12.455,0,0,1-2.991.7.3.3,0,0,1-.055.012c-.007,0-.012,0-.017,0q-.589.058-1.172.058A10.977,10.977,0,0,1-15639.008-1877.169Zm.188-.831a10.175,10.175,0,0,0,1.944.142l-.991-.992-.139.01c-.2.015-.4.025-.6.03-.1,0-.192.008-.288.008l-.044,0c-.241,0-.48-.012-.718-.028Zm3.706-1.414c-.179.057-.359.11-.538.16-.068.02-.139.042-.207.059-.226.06-.452.11-.678.155-.09.018-.18.033-.27.05l1.053,1.052a11.561,11.561,0,0,0,1.983-.421l-1.128-1.128Zm-5.343.981-.581-.581c-.237-.048-.476-.1-.709-.167-.082-.022-.162-.047-.241-.07-.1-.032-.209-.057-.312-.09A8.983,8.983,0,0,0-15640.456-1878.433Zm7.164-1.733c-.047.025-.094.048-.141.072-.2.1-.4.187-.6.274l1.149,1.149a12.645,12.645,0,0,0,1.236-.568l-1.173-1.174C-15632.976-1880.328-15633.134-1880.244-15633.292-1880.166Zm-11.168-17.3c-4.475,4.474-4.944,11.282-1.053,15.176a9.042,9.042,0,0,0,.747.664l.149.114.031.022a8.891,8.891,0,0,0,.77.519l.015.009a8.924,8.924,0,0,0,.8.427l.031.013c.266.122.535.232.811.327l.052.018c.249.087.5.159.758.222l.159.042c.239.055.48.1.723.137.078.012.155.025.234.035.23.03.465.052.7.067.088.005.176.01.265.013.231.007.468.008.7,0l.264-.012c.24-.015.482-.033.725-.063.075-.008.15-.02.226-.032.257-.037.514-.078.77-.134.051-.01.1-.023.149-.035.264-.06.527-.127.788-.207l.075-.02c.286-.089.569-.19.852-.3.035-.013.068-.025.1-.038.278-.112.552-.235.826-.369.034-.018.072-.035.106-.052.271-.137.538-.282.8-.439l.105-.065c.263-.16.521-.329.776-.511l.095-.07c.257-.187.508-.382.755-.591.022-.018.046-.038.066-.058.254-.219.5-.446.747-.688s.468-.489.684-.743a.755.755,0,0,0,.063-.072q.309-.366.586-.75c.026-.033.051-.068.076-.1.178-.252.348-.507.5-.766.024-.04.049-.079.071-.119.154-.259.3-.521.433-.786.02-.042.04-.083.061-.125.13-.267.252-.536.359-.808.019-.04.033-.08.048-.122.107-.27.2-.544.291-.82.01-.037.02-.075.031-.112.074-.25.138-.5.2-.751.014-.057.028-.115.043-.174.051-.25.093-.5.128-.75.012-.082.024-.165.034-.247.029-.235.048-.471.061-.706.007-.1.011-.189.014-.282.007-.229.007-.458,0-.684,0-.1-.008-.189-.015-.284-.014-.229-.033-.457-.063-.684-.01-.083-.024-.165-.039-.249-.036-.239-.078-.476-.133-.709-.014-.059-.03-.115-.045-.172-.062-.249-.132-.5-.216-.738-.008-.023-.017-.047-.025-.072a8.42,8.42,0,0,0-.323-.8.306.306,0,0,0-.017-.037,8.556,8.556,0,0,0-.425-.8l-.01-.017a8.8,8.8,0,0,0-.518-.77.215.215,0,0,1-.024-.033l-.112-.145a8.59,8.59,0,0,0-.664-.748,9.245,9.245,0,0,0-6.624-2.638A12.224,12.224,0,0,0-15644.46-1897.464Zm13.44,15.856c-.053.04-.1.083-.157.123-.221.167-.444.329-.669.479l-.054.033-.168.109,1.188,1.187a12.042,12.042,0,0,0,1.061-.743l-1.194-1.194Zm1.284-1.13c-.2.2-.4.387-.611.571,0,0-.006.007-.01.01l1.2,1.2c.212-.187.423-.376.627-.578.1-.1.191-.209.288-.312l-1.2-1.2C-15629.54-1882.943-15629.634-1882.84-15629.735-1882.738Zm1.221-1.394c-.01.012-.018.022-.027.032-.107.142-.218.282-.334.419l1.2,1.2a12.448,12.448,0,0,0,.766-1.037l-1.186-1.185Q-15628.3-1884.415-15628.515-1884.132Zm1.447-2.355c-.024.052-.048.1-.075.152-.117.237-.24.473-.376.7-.01.018-.02.035-.03.054l-.081.135,1.177,1.178a12.3,12.3,0,0,0,.606-1.2l-1.157-1.157C-15627.025-1886.574-15627.047-1886.531-15627.067-1886.488Zm.88-2.391c-.019.068-.038.139-.058.207-.051.182-.106.364-.165.546-.021.067-.043.135-.066.2-.054.155-.11.309-.169.462l1.139,1.137a11.86,11.86,0,0,0,.5-1.906l-1.079-1.077C-15626.118-1889.165-15626.151-1889.022-15626.187-1888.878Zm.386-3c0,.117,0,.234-.007.352s-.007.232-.014.349q-.018.306-.054.611l-.029.235,1.03,1.032a10.528,10.528,0,0,0-.021-1.825l-.9-.9C-15625.8-1891.976-15625.8-1891.926-15625.8-1891.876Zm-.492-3.279c.046.15.09.3.132.452.023.087.047.174.068.26.047.2.086.4.123.594.02.11.034.22.053.33.01.067.021.134.027.2l.729.726a9.137,9.137,0,0,0-1.176-2.713C-15626.323-1895.253-15626.312-1895.2-15626.294-1895.155Zm-.428,17.553a.424.424,0,0,1,.424-.424c.691,0,1.275-.389,1.275-.85a.424.424,0,0,1,.424-.426.425.425,0,0,1,.426.426,1.951,1.951,0,0,1-2.125,1.7A.424.424,0,0,1-15626.722-1877.6Zm-21.676-2.125a.427.427,0,0,1,.427-.424.427.427,0,0,1,.426.424,1.276,1.276,0,0,0,1.273,1.276.425.425,0,0,1,.426.426.425.425,0,0,1-.426.424A2.128,2.128,0,0,1-15648.4-1879.727Zm18.7,1.276a.424.424,0,0,1,.424-.424,3.829,3.829,0,0,0,3.824-3.826.425.425,0,0,1,.426-.424.425.425,0,0,1,.424.424,4.679,4.679,0,0,1-4.674,4.676A.424.424,0,0,1-15629.7-1878.451Zm-8.821-2.931a.422.422,0,0,1-.423-.422.423.423,0,0,1,.421-.427c.266,0,.536-.015.8-.042a.424.424,0,0,1,.464.381.424.424,0,0,1-.38.466c-.293.028-.59.045-.882.045Zm-2.619-.4a7.943,7.943,0,0,1-.83-.322.425.425,0,0,1-.21-.563.423.423,0,0,1,.563-.21,6.958,6.958,0,0,0,.74.287.426.426,0,0,1,.273.536.427.427,0,0,1-.4.294A.4.4,0,0,1-15641.137-1881.785Zm5.514-.506a.426.426,0,0,1,.242-.551c.247-.1.5-.207.737-.326a.425.425,0,0,1,.568.194.424.424,0,0,1-.192.569c-.264.13-.534.249-.8.354a.419.419,0,0,1-.154.03A.426.426,0,0,1-15635.623-1882.291Zm-8.522-1.322a.389.389,0,0,1-.041-.04,7.486,7.486,0,0,1-.564-.638.425.425,0,0,1,.069-.6.428.428,0,0,1,.6.07,6.734,6.734,0,0,0,.518.583.434.434,0,0,1,.011.6.432.432,0,0,1-.308.132A.409.409,0,0,1-15644.146-1883.613Zm11.471-.286a.424.424,0,0,1,.047-.6c.2-.174.4-.356.589-.544a.429.429,0,0,1,.6,0,.425.425,0,0,1,0,.6l0,.005c-.2.2-.419.4-.638.589a.427.427,0,0,1-.277.1A.428.428,0,0,1-15632.675-1883.9Zm2.275-2.471a.426.426,0,0,1-.146-.583c.14-.23.27-.469.389-.708a.422.422,0,0,1,.566-.194.424.424,0,0,1,.2.569c-.129.259-.271.519-.42.77a.426.426,0,0,1-.366.207A.421.421,0,0,1-15630.4-1886.369Zm-15.606-.269a7.719,7.719,0,0,1-.231-.858.427.427,0,0,1,.329-.5.425.425,0,0,1,.5.329,7.166,7.166,0,0,0,.205.768.424.424,0,0,1-.271.536.409.409,0,0,1-.132.022A.425.425,0,0,1-15646.006-1886.638Zm16.956-2.8a.423.423,0,0,1-.336-.5c.051-.264.09-.531.116-.793a.426.426,0,0,1,.465-.382.427.427,0,0,1,.382.464c-.029.291-.073.584-.129.873a.425.425,0,0,1-.417.344A.345.345,0,0,1-15629.05-1889.442Zm-16.943-.234a.424.424,0,0,1-.38-.464c.028-.289.069-.583.124-.871a.428.428,0,0,1,.5-.337.426.426,0,0,1,.337.5c-.052.264-.09.531-.117.795a.424.424,0,0,1-.422.384Zm16.6-3.444a7.162,7.162,0,0,0-.2-.77.425.425,0,0,1,.272-.536.428.428,0,0,1,.537.272,8.3,8.3,0,0,1,.228.86.423.423,0,0,1-.329.5.4.4,0,0,1-.088.008A.426.426,0,0,1-15629.39-1893.12Zm-15.824.182a.425.425,0,0,1-.193-.569c.127-.26.269-.521.419-.771a.424.424,0,0,1,.583-.145.422.422,0,0,1,.146.583c-.137.23-.267.467-.384.708a.427.427,0,0,1-.383.239A.447.447,0,0,1-15645.214-1892.938Zm1.849-2.814a.415.415,0,0,1-.007-.594l.3.3-.292-.309q.313-.313.635-.588a.428.428,0,0,1,.6.047.427.427,0,0,1-.047.6c-.2.17-.393.351-.58.536a.439.439,0,0,1-.311.129A.422.422,0,0,1-15643.365-1895.752Zm12.66-.224a6.483,6.483,0,0,0-.525-.593.436.436,0,0,1-.009-.611.413.413,0,0,1,.591-.008l-.3.3.313-.287a7.342,7.342,0,0,1,.6.673.424.424,0,0,1-.069.6.423.423,0,0,1-.264.092A.421.421,0,0,1-15630.705-1895.976Zm-10.027-1.846a.423.423,0,0,1,.191-.569c.261-.13.532-.25.8-.355a.424.424,0,0,1,.551.239.425.425,0,0,1-.241.551c-.248.1-.5.208-.735.327a.426.426,0,0,1-.188.045A.422.422,0,0,1-15640.732-1897.823Zm7.539-.105a7.1,7.1,0,0,0-.74-.286.426.426,0,0,1-.275-.536.426.426,0,0,1,.536-.274,8.1,8.1,0,0,1,.83.32.425.425,0,0,1,.211.563.425.425,0,0,1-.387.25A.434.434,0,0,1-15633.193-1897.928Zm-4.362-.98a.424.424,0,0,1,.379-.466,8.708,8.708,0,0,1,.883-.047h0a.426.426,0,0,1,.427.422.426.426,0,0,1-.425.427c-.266,0-.534.015-.8.042a.4.4,0,0,1-.044,0A.425.425,0,0,1-15637.556-1898.908Zm12.107-.367c0-.937-.571-1.7-1.273-1.7a.425.425,0,0,1-.426-.426.425.425,0,0,1,.426-.424,2.369,2.369,0,0,1,2.123,2.549.425.425,0,0,1-.424.426A.425.425,0,0,1-15625.448-1899.275Z" transform="translate(15648.997 1902.001)" fill="#fff"/>
</svg>
