<svg xmlns="http://www.w3.org/2000/svg" viewBox="0 0 60.006 60.006">
    <path d="M59.427,40.91c-2.008-3.796-8.98-7.912-9.287-8.092c-1.278-0.728-2.599-0.958-3.723-0.646
	c-0.844,0.233-1.531,0.767-1.994,1.545c-1.02,1.22-2.285,2.646-2.592,2.867c-2.371,1.604-4.253,1.414-6.295-0.629L24.05,24.469
	c-2.045-2.045-2.233-3.928-0.631-6.292c0.224-0.31,1.649-1.575,2.869-2.595c0.778-0.463,1.312-1.15,1.545-1.994
	c0.312-1.123,0.082-2.445-0.652-3.733c-0.173-0.296-4.289-7.269-8.085-9.276C17.17-0.441,14.841-0.09,13.3,1.451l-2.536,2.537
	C6.75,8.001,5.296,12.549,6.443,17.506c0.956,4.132,3.742,8.529,8.282,13.069L29.43,45.281c4.54,4.54,8.937,7.326,13.069,8.282
	c0.316,0.073,0.627,0.113,0.94,0.165c-1.072,2.512-3.567,4.278-6.466,4.278c-3.127,0-5.832-2.013-6.73-5.008l-0.904-3.014
	C29.159,49.389,28.621,48.99,28,48.99s-1.159,0.399-1.338,0.995L25,55.525l-1.662-5.541C23.159,49.389,22.621,48.99,22,48.99
	s-1.159,0.399-1.338,0.995L19,55.525l-1.662-5.541C17.159,49.389,16.621,48.99,16,48.99c-0.621,0-1.159,0.399-1.338,0.995L13,55.525
	l-1.662-5.541C11.159,49.389,10.621,48.99,10,48.99s-1.159,0.399-1.338,0.995L7,55.525l-1.662-5.541
	C5.159,49.389,4.621,48.99,4,48.99s-1.159,0.399-1.338,0.995l-2.62,8.733c-0.158,0.528,0.142,1.086,0.671,1.245
	C0.809,59.992,0.906,60.005,1,60.005c0.431,0,0.828-0.279,0.958-0.713L4,52.486l1.662,5.541C5.841,58.622,6.379,59.021,7,59.021
	s1.159-0.399,1.338-0.995L10,52.486l1.662,5.541c0.179,0.595,0.717,0.994,1.338,0.994s1.159-0.399,1.338-0.995L16,52.486
	l1.662,5.541c0.179,0.595,0.717,0.994,1.338,0.994s1.159-0.399,1.338-0.995L22,52.486l1.662,5.541
	c0.179,0.595,0.717,0.994,1.338,0.994s1.159-0.399,1.338-0.995L28,52.485l0.326,1.087c1.154,3.849,4.629,6.434,8.646,6.434
	c3.943,0,7.295-2.545,8.522-6.076c0.075,0.001,0.152,0.014,0.227,0.014c3.717-0.001,7.169-1.573,10.296-4.701l2.537-2.536
	C60.096,45.164,60.447,42.835,59.427,40.91z M57.141,45.292l-2.537,2.536c-2.696,2.696-5.552,4.046-8.655,4.105
	C45.982,51.619,46,51.301,46,50.978v-1.973c0-0.553-0.447-1-1-1s-1,0.447-1,1v1.973c0,0.272-0.019,0.54-0.05,0.804
	c-0.332-0.05-0.663-0.09-1.001-0.168c-3.762-0.87-7.834-3.477-12.105-7.748L16.139,29.162c-4.271-4.271-6.878-8.344-7.748-12.105
	c-0.994-4.3,0.245-8.112,3.787-11.654l2.536-2.537c0.567-0.566,1.313-0.862,2.07-0.862c0.468,0,0.939,0.112,1.376,0.344
	c3.294,1.743,7.256,8.453,7.289,8.51c0.449,0.788,0.62,1.609,0.457,2.197c-0.1,0.36-0.323,0.633-0.683,0.835l-0.151,0.104
	c-0.853,0.712-2.883,2.434-3.308,3.062c-0.612,0.904-1.018,1.793-1.23,2.666c-0.711-1.418-1.286-3.061-1.475-4.881
	c-0.058-0.549-0.542-0.942-1.099-0.892c-0.549,0.058-0.948,0.549-0.892,1.099c0.722,6.953,6.13,11.479,6.359,11.668
	c0.026,0.021,0.056,0.029,0.083,0.047l10.61,10.61c0.044,0.044,0.089,0.083,0.134,0.126c0.036,0.052,0.059,0.111,0.106,0.157
	c0.189,0.187,4.704,4.567,11.599,5.283c0.035,0.003,0.07,0.005,0.104,0.005c0.506,0,0.94-0.383,0.994-0.896
	c0.057-0.55-0.343-1.041-0.892-1.099c-2.115-0.219-3.988-0.839-5.549-1.558c0.766-0.23,1.544-0.612,2.333-1.147
	c0.628-0.425,2.35-2.455,3.062-3.308l0.104-0.151c0.202-0.359,0.475-0.583,0.835-0.683c0.587-0.164,1.409,0.008,2.187,0.45
	c1.879,1.102,7.072,4.559,8.521,7.296C58.265,42.99,58.057,44.375,57.141,45.292z"/>
</svg>
