<svg xmlns="http://www.w3.org/2000/svg" viewBox="0 0 512 512">
    <g>
        <path d="M456.313,85.333h-55.527C386.809,36.16,341.594,0,288,0s-98.809,36.16-112.785,85.333h-69.441l-3.482-11.938
				c-5.271-18.094-22.115-30.729-40.958-30.729H32c-5.896,0-10.667,4.771-10.667,10.667C21.333,59.229,26.104,64,32,64h29.333
				c9.427,0,17.844,6.313,20.479,15.365L148.208,307l-34.021,42.521c-4.854,6.073-7.521,13.688-7.521,21.458
				c0,18.948,15.406,34.354,34.354,34.354h296.313c5.896,0,10.667-4.771,10.667-10.667S443.229,384,437.333,384H141.021
				c-7.177,0-13.021-5.844-13.021-13.021c0-2.948,1.01-5.844,2.854-8.135L165.133,320h209.221c16.448,0,31.604-9.615,38.615-24.5
				l74.438-158.177c2.135-4.552,3.26-9.604,3.26-14.615v-3.021C490.667,100.74,475.26,85.333,456.313,85.333z M288,21.333
				c52.938,0,96,43.063,96,96s-43.063,96-96,96s-96-43.063-96-96S235.063,21.333,288,21.333z M469.333,122.708
				c0,1.906-0.427,3.823-1.24,5.542l-74.427,158.167c-3.51,7.438-11.083,12.25-19.313,12.25H168l-56.004-192h59.211
				c-0.319,3.518-0.54,7.066-0.54,10.667c0,64.698,52.635,117.333,117.333,117.333s117.333-52.635,117.333-117.333
				c0-3.6-0.221-7.148-0.54-10.667h51.52c7.177,0,13.021,5.844,13.021,13.021V122.708z"/>
        <path d="M149.333,426.667c-23.531,0-42.667,19.135-42.667,42.667S125.802,512,149.333,512S192,492.865,192,469.333
				S172.865,426.667,149.333,426.667z M149.333,490.667c-11.76,0-21.333-9.573-21.333-21.333c0-11.76,9.573-21.333,21.333-21.333
				c11.76,0,21.333,9.573,21.333,21.333C170.667,481.094,161.094,490.667,149.333,490.667z"/>
        <path d="M405.333,426.667c-23.531,0-42.667,19.135-42.667,42.667S381.802,512,405.333,512S448,492.865,448,469.333
				S428.865,426.667,405.333,426.667z M405.333,490.667c-11.76,0-21.333-9.573-21.333-21.333c0-11.76,9.573-21.333,21.333-21.333
				c11.76,0,21.333,9.573,21.333,21.333C426.667,481.094,417.094,490.667,405.333,490.667z"/>
        <path d="M245.333,128h32v32c0,5.896,4.771,10.667,10.667,10.667s10.667-4.771,10.667-10.667v-32h32
				c5.896,0,10.667-4.771,10.667-10.667c0-5.896-4.771-10.667-10.667-10.667h-32v-32C298.667,68.771,293.896,64,288,64
				s-10.667,4.771-10.667,10.667v32h-32c-5.896,0-10.667,4.771-10.667,10.667C234.667,123.229,239.438,128,245.333,128z"/>
    </g>
</svg>
