<svg xmlns="http://www.w3.org/2000/svg" viewBox="0 0 99.874 100"><path d="M14.62,85.321A49.978,49.978,0,0,1,77.169,8.062l5.082-6.24,1.456,14.412L69.295,17.69l5.022-6.151a45.5,45.5,0,1,0,21.1,40.768,2.232,2.232,0,0,1,4.457.238A49.946,49.946,0,0,1,14.62,85.321Zm13.906-9.39A2.245,2.245,0,0,1,26.3,73.7V40.154a2.274,2.274,0,0,1,.059-.446c.03,0,.03-.03.03-.06,0-.059.03-.089.03-.148a.181.181,0,0,1,.029-.119c0-.03.03-.06.03-.089a2.478,2.478,0,0,1,.208-.386l9.45-13.847a2.192,2.192,0,0,1,1.842-.98h23.95a2.194,2.194,0,0,1,1.842.98l9.449,13.877a1.569,1.569,0,0,1,.209.386c0,.03.029.06.029.089s.03.09.03.119c0,.06.03.09.03.149.03,0,.03.03.03.06a2,2,0,0,1,.029.445V73.7a2.245,2.245,0,0,1-2.228,2.229ZM30.785,71.5H69.147V42.413H30.785Zm1.961-33.578h34.38l-6.389-9.39H39.164Z" transform="translate(0 0)" /></svg>