<svg xmlns="http://www.w3.org/2000/svg" viewBox="0 0 76.848 100"><path d="M44.389,3a1.923,1.923,0,0,0-1.345.571A71.138,71.138,0,0,1,7.527,23.048,1.923,1.923,0,0,0,6.01,24.933V61.592C6.01,71.936,10,79.417,16.662,85.533s15.871,11.062,26.8,17.225a1.923,1.923,0,0,0,.947.24h.06a1.923,1.923,0,0,0,.947-.24c10.924-6.163,20.137-11.11,26.8-17.225s10.652-13.6,10.652-23.941V24.918a1.923,1.923,0,0,0-1.517-1.886A71.155,71.155,0,0,1,45.778,3.562,1.923,1.923,0,0,0,44.389,3Zm.022,4.3a74.772,74.772,0,0,0,34.6,18.93V61.592c0,9.4-3.3,15.5-9.4,21.109-5.919,5.436-14.67,10.263-25.173,16.181C33.931,92.964,25.18,88.137,19.261,82.7c-6.107-5.608-9.405-11.712-9.405-21.109V26.248A74.771,74.771,0,0,0,44.411,7.3Zm.023,22.626A23.077,23.077,0,1,0,67.511,53.006,23.106,23.106,0,0,0,44.434,29.929Zm0,3.846A19.138,19.138,0,0,1,59.405,64.95a15.419,15.419,0,0,0-9.187-10.787,7.619,7.619,0,0,0,1.908-5,7.692,7.692,0,1,0-15.385,0,7.619,7.619,0,0,0,1.9,5,15.43,15.43,0,0,0-9.195,10.787A19.146,19.146,0,0,1,44.434,33.775Zm0,11.538a3.846,3.846,0,1,1-3.846,3.846A3.817,3.817,0,0,1,44.434,45.313Zm.135,11.538a11.516,11.516,0,0,1,11.4,11.4q0,.03.008.06a18.935,18.935,0,0,1-23.115-.015,1.925,1.925,0,0,0,.038-.315A11.515,11.515,0,0,1,44.569,56.852Z" transform="translate(-6.01 -2.998)"/></svg>